<svg width="41" height="52" viewBox="0 0 41 52" fill="none" xmlns="http://www.w3.org/2000/svg">
<path d="M39.0985 19.3668C35.0027 21.3365 30.9069 20.5544 30.9069 20.5544C30.9069 20.5544 38.3569 18.1849 39.7184 14.0138C41.2883 9.22282 40.5642 5.25446 38.3975 0C34.9969 10.8217 20.033 12.0731 14.3035 18.6426C11.7776 21.5392 10.7233 25.5887 10.4104 27.1355C9.79055 25.9768 9.4951 24.5922 9.90642 22.9991C6.38993 27.4425 3.80035 31.5441 2.06239 41.9545C11.7487 25.3569 21.3422 22.9412 29.1805 15.1551C24.6502 20.1604 19.5869 24.0882 13.9906 29.6439C8.42915 35.2692 2.27094 44.2776 0 51.2585C1.63948 48.7558 4.0147 46.0851 7.25891 43.2406C10.5089 40.3962 16.951 45.0945 26.4577 37.9862C21.742 39.7357 18.1328 39.0637 15.607 38.6003C26.4577 37.9862 37.7718 30.7678 39.0811 19.3668H39.0985Z" fill="#E27600"/>
</svg>
