<svg width="48" height="48" viewBox="0 0 48 48" fill="none" xmlns="http://www.w3.org/2000/svg">
  <path d="M24 4C24 4 32 12 36 20C40 28 40 36 36 40C32 44 24 44 16 40C8 36 4 28 8 20C12 12 24 4 24 4Z" fill="url(#featherGradient)"/>
  <path d="M24 8L24 40" stroke="#FDBA74" stroke-width="1.5" stroke-linecap="round"/>
  <path d="M16 16C18 18 21 20 24 20C27 20 30 18 32 16" stroke="#FDBA74" stroke-width="1" stroke-linecap="round"/>
  <path d="M14 24C17 26 20 27 24 27C28 27 31 26 34 24" stroke="#FDBA74" stroke-width="1" stroke-linecap="round"/>
  <path d="M16 32C18 33 21 34 24 34C27 34 30 33 32 32" stroke="#FDBA74" stroke-width="1" stroke-linecap="round"/>
  <defs>
    <linearGradient id="featherGradient" x1="24" y1="4" x2="24" y2="44" gradientUnits="userSpaceOnUse">
      <stop offset="0%" stop-color="#FB923C"/>
      <stop offset="100%" stop-color="#EA580C"/>
    </linearGradient>
  </defs>
</svg>

